0
SECTION
2
HEADER
9
$INSUNITS
70
4
9
$ACADVER
1
AC1014
9
$HANDSEED
5
FFFF
0
ENDSEC
0
SECTION
2
TABLES
0
TABLE
2
VPORT
5
8
100
AcDbSymbolTable
0
ENDTAB
0
TABLE
2
LTYPE
5
5
100
AcDbSymbolTable
0
LTYPE
5
14
100
AcDbSymbolTableRecord
100
AcDbLinetypeTableRecord
2
BYBLOCK
70
0
0
LTYPE
5
15
100
AcDbSymbolTableRecord
100
AcDbLinetypeTableRecord
2
BYLAYER
70
0
0
ENDTAB
0
TABLE
2
LAYER
5
2
100
AcDbSymbolTable
70
2
0
LAYER
5
50
100
AcDbSymbolTableRecord
100
AcDbLayerTableRecord
2
0
70
0
6
CONTINUOUS
0
ENDTAB
0
TABLE
2
STYLE
5
3
100
AcDbSymbolTable
70
1
0
STYLE
5
11
100
AcDbSymbolTableRecord
100
AcDbTextStyleTableRecord
2
STANDARD
70
0
0
ENDTAB
0
TABLE
2
VIEW
5
6
100
AcDbSymbolTable
70
0
0
ENDTAB
0
TABLE
2
UCS
5
7
100
AcDbSymbolTable
70
0
0
ENDTAB
0
TABLE
2
APPID
5
9
100
AcDbSymbolTable
70
2
0
APPID
5
12
100
AcDbSymbolTableRecord
100
AcDbRegAppTableRecord
2
ACAD
70
0
0
ENDTAB
0
TABLE
2
DIMSTYLE
5
A
100
AcDbSymbolTable
70
1
0
ENDTAB
0
TABLE
2
BLOCK_RECORD
5
1
100
AcDbSymbolTable
70
1
0
BLOCK_RECORD
5
1F
100
AcDbSymbolTableRecord
100
AcDbBlockTableRecord
2
*MODEL_SPACE
0
BLOCK_RECORD
5
1B
100
AcDbSymbolTableRecord
100
AcDbBlockTableRecord
2
*PAPER_SPACE
0
ENDTAB
0
ENDSEC
0
SECTION
2
BLOCKS
0
BLOCK
5
20
100
AcDbEntity
100
AcDbBlockBegin
2
*MODEL_SPACE
0
ENDBLK
5
21
100
AcDbEntity
100
AcDbBlockEnd
0
BLOCK
5
1C
100
AcDbEntity
100
AcDbBlockBegin
2
*PAPER_SPACE
0
ENDBLK
5
1D
100
AcDbEntity
100
AcDbBlockEnd
0
ENDSEC
0
SECTION
2
ENTITIES
0
CIRCLE
5
100
100
AcDbEntity
8
0
100
AcDbCircle
10
39.125
20
-1.8369701987210287e-16
30
0
40
22.5
210
0
220
0
230
1
0
CIRCLE
5
101
100
AcDbEntity
8
0
100
AcDbCircle
10
-39.125
20
0
30
0
40
22.5
210
0
220
0
230
1
0
CIRCLE
5
102
100
AcDbEntity
8
0
100
AcDbCircle
10
-117.375
20
-1.8369701987210341e-16
30
0
40
22.5
210
0
220
0
230
1
0
CIRCLE
5
103
100
AcDbEntity
8
0
100
AcDbCircle
10
117.375
20
-1.8369701987210124e-16
30
0
40
22.5
210
0
220
0
230
1
0
LINE
5
104
100
AcDbEntity
8
0
100
AcDbLine
10
0
20
-39
30
0
11
0
21
50
31
0
0
CIRCLE
5
105
100
AcDbEntity
8
0
100
AcDbCircle
10
-117.375
20
-1.8369701987210341e-16
30
0
40
29.5
210
0
220
0
230
1
0
CIRCLE
5
106
100
AcDbEntity
8
0
100
AcDbCircle
10
-39.125
20
0
30
0
40
29.5
210
0
220
0
230
1
0
CIRCLE
5
107
100
AcDbEntity
8
0
100
AcDbCircle
10
39.125
20
-1.8369701987210287e-16
30
0
40
29.5
210
0
220
0
230
1
0
CIRCLE
5
108
100
AcDbEntity
8
0
100
AcDbCircle
10
117.375
20
-1.8369701987210124e-16
30
0
40
29.5
210
0
220
0
230
1
0
LINE
5
109
100
AcDbEntity
8
0
100
AcDbLine
10
-200
20
50
30
0
11
0
21
50
31
0
0
LINE
5
110
100
AcDbEntity
8
0
100
AcDbLine
10
0
20
50
30
0
11
200.00000000000071
21
50
31
0
0
LINE
5
111
100
AcDbEntity
8
0
100
AcDbLine
10
0
20
-39
30
0
11
200
21
-38.999999999999957
31
0
0
LINE
5
112
100
AcDbEntity
8
0
100
AcDbLine
10
0
20
-39
30
0
11
-200
21
-39
31
0
0
LINE
5
113
100
AcDbEntity
8
0
100
AcDbLine
10
-117.375
20
50
30
0
11
-117.375
21
-39
31
0
0
LINE
5
114
100
AcDbEntity
8
0
100
AcDbLine
10
-39.125
20
50
30
0
11
-39.125
21
-39
31
0
0
LINE
5
115
100
AcDbEntity
8
0
100
AcDbLine
10
39.125
20
50
30
0
11
39.125
21
-39
31
0
0
LINE
5
116
100
AcDbEntity
8
0
100
AcDbLine
10
117.375
20
50
30
0
11
117.375
21
-38.999999999999979
31
0
0
LWPOLYLINE
5
117
100
AcDbEntity
8
0
100
AcDbPolyline
90
8
70
1
43
0.0
10
151.38081542252189
20
0
10
151.37963534126348
20
-29.000406918861735
42
-0.41420164404579102
10
141.37963534954264
20
-38.999999999999972
10
93.528695795928925
20
-39.000000000001961
42
-0.38443720150478128
10
83.581408378592172
20
-30.025413593109491
10
85.860495841441264
20
1.9539925233402755e-13
42
-0.079364869759405876
10
91.323426544507925
20
22.902169230631895
10
142.9455265924845
20
22.861657974282444
42
-0.17862173565478603
0
LWPOLYLINE
5
118
100
AcDbEntity
8
0
100
AcDbPolyline
90
8
70
1
43
0.0
10
15.339442093307902
20
-38.999999999999993
10
62.865061576010781
20
-38.999999999999993
42
0.44176779662325683
10
72.821706873319371
20
-28.069830970459702
10
70.500544863271656
20
0
42
0.079077352270247453
10
64.924526938022552
20
22.75298582866612
10
13.215572580684567
20
22.631727257881572
42
0.078597163725263999
10
7.717602689764659
20
2.1846852983823775e-05
10
5.3402324658918099
20
-29.125725204279167
42
0.41053583552427941
0
LWPOLYLINE
5
119
100
AcDbEntity
8
0
100
AcDbPolyline
90
8
70
1
43
0.0
10
-62.885357431128135
20
-39.000000000000007
10
-15.318774041559369
20
-39
42
0.41396016064741137
10
-5.318777784804718
20
-29.008652450053177
10
-7.6938330622892881
20
-5.9102167604407896e-10
42
0.078573616979744715
10
-13.196127924180301
20
22.629657745539475
10
-65.041273193749745
20
22.400492270618983
42
0.077815505904079971
10
-70.47934768515843
20
2.5807558557033418e-06
10
-72.885331156251624
20
-28.977076282171193
42
0.41488514260665821
0
LWPOLYLINE
5
120
100
AcDbEntity
8
0
100
AcDbPolyline
90
8
70
1
43
0.0
10
-151.61276283302951
20
-5.2335863698746849e-07
10
-151.37939246233745
20
-29.080247892443303
42
0.41186507923894594
10
-141.37971445371383
20
-39
10
-93.516479209177405
20
-39
42
0.38443436784385793
10
-83.569201918473439
20
-30.025511824332348
10
-85.823943888627099
20
-1.2282040051658782e-07
42
0.078644307691534673
10
-91.189368587622909
20
22.718624669292964
10
-143.29374695338805
20
22.861767858079428
42
0.18042749109154504
0
LINE
5
121
100
AcDbEntity
8
0
100
AcDbLine
10
-96.375000000000014
20
-20.718349355100667
30
0
11
-96.375000000000014
21
-50
31
0
0
LINE
5
122
100
AcDbEntity
8
0
100
AcDbLine
10
-138.37500000000003
20
-50
30
0
11
-138.37500000000003
21
-20.718349355100649
31
0
0
LINE
5
123
100
AcDbEntity
8
0
100
AcDbLine
10
-18.125
20
-50
30
0
11
-18.125
21
-20.718349355100663
31
0
0
LINE
5
124
100
AcDbEntity
8
0
100
AcDbLine
10
-60.125
20
-50
30
0
11
-60.125
21
-20.718349355100663
31
0
0
LINE
5
125
100
AcDbEntity
8
0
100
AcDbLine
10
18.125
20
-50
30
0
11
18.125
21
-20.718349355100667
31
0
0
LINE
5
126
100
AcDbEntity
8
0
100
AcDbLine
10
60.125
20
-50
30
0
11
60.125
21
-20.718349355100667
31
0
0
LINE
5
127
100
AcDbEntity
8
0
100
AcDbLine
10
96.375000000000014
20
-50
30
0
11
96.374999999999972
21
-20.718349355100628
31
0
0
LINE
5
128
100
AcDbEntity
8
0
100
AcDbLine
10
138.375
20
-50
30
0
11
138.375
21
-20.718349355100671
31
0
0
CIRCLE
5
129
100
AcDbEntity
8
0
100
AcDbCircle
10
-138.37500000000003
20
-29.000000000000004
30
0
40
3.0499999999999936
210
0
220
0
230
1
0
CIRCLE
5
130
100
AcDbEntity
8
0
100
AcDbCircle
10
-96.375000000000014
20
-29.000000000000021
30
0
40
3.0500000000000025
210
0
220
0
230
1
0
CIRCLE
5
131
100
AcDbEntity
8
0
100
AcDbCircle
10
-60.125
20
-28.999999999999993
30
0
40
3.0500000000000007
210
0
220
0
230
1
0
CIRCLE
5
132
100
AcDbEntity
8
0
100
AcDbCircle
10
-18.125
20
-28.999999999999993
30
0
40
3.0500000000000007
210
0
220
0
230
1
0
CIRCLE
5
133
100
AcDbEntity
8
0
100
AcDbCircle
10
18.125
20
-29.000000000000007
30
0
40
3.0500000000000012
210
0
220
0
230
1
0
CIRCLE
5
134
100
AcDbEntity
8
0
100
AcDbCircle
10
60.125
20
-29.000000000000007
30
0
40
3.0499999999999998
210
0
220
0
230
1
0
CIRCLE
5
135
100
AcDbEntity
8
0
100
AcDbCircle
10
96.375
20
-29.000000000000018
30
0
40
3.0499999999999963
210
0
220
0
230
1
0
CIRCLE
5
136
100
AcDbEntity
8
0
100
AcDbCircle
10
138.375
20
-29.000000000000018
30
0
40
3.0499999999999994
210
0
220
0
230
1
0
CIRCLE
5
137
100
AcDbEntity
8
0
100
AcDbCircle
10
-117.375
20
42.013361829260148
30
0
40
3.0499999999999998
210
0
220
0
230
1
0
CIRCLE
5
138
100
AcDbEntity
8
0
100
AcDbCircle
10
-39.125
20
42.017904239719471
30
0
40
3.0499999999999989
210
0
220
0
230
1
0
CIRCLE
5
139
100
AcDbEntity
8
0
100
AcDbCircle
10
39.125
20
42.020550944735277
30
0
40
3.049999999999998
210
0
220
0
230
1
0
CIRCLE
5
140
100
AcDbEntity
8
0
100
AcDbCircle
10
117.375
20
42.013378080352474
30
0
40
3.0499999999999932
210
0
220
0
230
1
0
LINE
5
141
100
AcDbEntity
8
0
100
AcDbLine
10
117.375
20
34.013378046741842
30
0
11
39.125
21
34.020550911124651
31
0
0
LINE
5
142
100
AcDbEntity
8
0
100
AcDbLine
10
-39.125
20
34.017904226240283
30
0
11
-117.375
21
34.013361815780968
31
0
0
CIRCLE
5
143
100
AcDbEntity
8
0
100
AcDbCircle
10
117.375
20
42.013378080352474
30
0
40
7.5
210
0
220
0
230
1
0
CIRCLE
5
144
100
AcDbEntity
8
0
100
AcDbCircle
10
39.125
20
42.020550944735263
30
0
40
7.5
210
0
220
0
230
1
0
CIRCLE
5
145
100
AcDbEntity
8
0
100
AcDbCircle
10
-39.125
20
42.017904239719471
30
0
40
7.5
210
0
220
0
230
1
0
CIRCLE
5
146
100
AcDbEntity
8
0
100
AcDbCircle
10
-117.375
20
42.013361829260148
30
0
40
7.5
210
0
220
0
230
1
0
CIRCLE
5
147
100
AcDbEntity
8
0
100
AcDbCircle
10
-138.37500000000003
20
-29.000000000000004
30
0
40
5.5
210
0
220
0
230
1
0
CIRCLE
5
148
100
AcDbEntity
8
0
100
AcDbCircle
10
-96.375000000000014
20
-29.000000000000021
30
0
40
5.5000000000000027
210
0
220
0
230
1
0
CIRCLE
5
149
100
AcDbEntity
8
0
100
AcDbCircle
10
-60.125
20
-28.999999999999993
30
0
40
5.5000000000000027
210
0
220
0
230
1
0
CIRCLE
5
150
100
AcDbEntity
8
0
100
AcDbCircle
10
-18.125
20
-28.999999999999993
30
0
40
5.5
210
0
220
0
230
1
0
CIRCLE
5
151
100
AcDbEntity
8
0
100
AcDbCircle
10
18.125
20
-29.000000000000007
30
0
40
5.5
210
0
220
0
230
1
0
CIRCLE
5
152
100
AcDbEntity
8
0
100
AcDbCircle
10
60.125
20
-29.000000000000007
30
0
40
5.4999999999999991
210
0
220
0
230
1
0
CIRCLE
5
153
100
AcDbEntity
8
0
100
AcDbCircle
10
96.375
20
-29.000000000000018
30
0
40
5.4999999999999991
210
0
220
0
230
1
0
CIRCLE
5
154
100
AcDbEntity
8
0
100
AcDbCircle
10
138.375
20
-29.000000000000018
30
0
40
5.5000000000000071
210
0
220
0
230
1
0
LINE
5
155
100
AcDbEntity
8
0
100
AcDbLine
10
73.125
20
0
30
0
11
83.375
21
0
31
0
0
LINE
5
156
100
AcDbEntity
8
0
100
AcDbLine
10
-83.374999999999986
20
0
30
0
11
-73.125
21
0
31
0
0
LINE
5
157
100
AcDbEntity
8
0
100
AcDbLine
10
-111.65365634706058
20
46.862715064998888
30
0
11
-91.189368587622909
21
22.718624669292964
31
0
0
LINE
5
158
100
AcDbEntity
8
0
100
AcDbLine
10
-123.11348079134704
20
46.84242366437276
30
0
11
-143.29374695338805
21
22.861767858079428
31
0
0
LINE
5
159
100
AcDbEntity
8
0
100
AcDbLine
10
-44.909252988693282
20
46.792044723910607
30
0
11
-65.041273193749745
21
22.400492270618987
31
0
0
LINE
5
160
100
AcDbEntity
8
0
100
AcDbLine
10
-33.364416600202709
20
46.820578379610687
30
0
11
-13.196127924180301
21
22.629657745539475
31
0
0
LINE
5
161
100
AcDbEntity
8
0
100
AcDbLine
10
33.362082483903308
20
46.820424037077082
30
0
11
13.215572580684565
21
22.631727257881572
31
0
0
LINE
5
162
100
AcDbEntity
8
0
100
AcDbLine
10
44.888966222336407
20
46.819164639102091
30
0
11
64.924526938022552
21
22.75298582866612
31
0
0
LINE
5
163
100
AcDbEntity
8
0
100
AcDbLine
10
111.65618791033791
20
46.865716514873995
30
0
11
91.323426544507925
21
22.902169230631895
31
0
0
LINE
5
164
100
AcDbEntity
8
0
100
AcDbLine
10
123.15467073791241
20
46.793064907051026
30
0
11
142.94552659248194
21
22.861657974280263
31
0
0
LINE
5
165
100
AcDbEntity
8
0
100
AcDbLine
10
-65.041273193749745
20
22.400492270618987
30
0
11
-91.189368587622909
21
22.718624669292964
31
0
0
LINE
5
166
100
AcDbEntity
8
0
100
AcDbLine
10
-13.196127924180301
20
22.629657745539475
30
0
11
13.215572580684565
21
22.631727257881572
31
0
0
LINE
5
167
100
AcDbEntity
8
0
100
AcDbLine
10
64.924526938022552
20
22.75298582866612
30
0
11
91.323426544507925
21
22.902169230631895
31
0
0
LINE
5
168
100
AcDbEntity
8
0
100
AcDbLine
10
-13.196127924180301
20
22.629657745539475
30
0
11
-13.196127949847675
21
1.817319528408222e-25
31
0
0
LINE
5
169
100
AcDbEntity
8
0
100
AcDbLine
10
-65.041273193749745
20
22.400492270618987
30
0
11
-65.041273061566784
21
-6.0822770949526226e-24
31
0
0
LINE
5
170
100
AcDbEntity
8
0
100
AcDbLine
10
-143.29374695338805
20
22.861767858079428
30
0
11
-143.29374728597207
21
-7.9495242956547146e-24
31
0
0
LINE
5
171
100
AcDbEntity
8
0
100
AcDbLine
10
-91.189368587622909
20
22.718624669292964
30
0
11
-91.189368463554075
21
-2.4992077556081574e-24
31
0
0
LINE
5
172
100
AcDbEntity
8
0
100
AcDbLine
10
91.323426544507925
20
22.902169230631895
30
0
11
91.323426544515826
21
0
31
0
0
LINE
5
173
100
AcDbEntity
8
0
100
AcDbLine
10
142.94552659248194
20
22.861657974280263
30
0
11
142.94552659247404
21
0
31
0
0
LINE
5
174
100
AcDbEntity
8
0
100
AcDbLine
10
13.215572580684565
20
22.631727257881572
30
0
11
13.215572580807574
21
-2.6628743019691255e-27
31
0
0
LINE
5
175
100
AcDbEntity
8
0
100
AcDbLine
10
64.924526938022552
20
22.75298582866612
30
0
11
64.924526938017948
21
0
31
0
0
CIRCLE
5
176
100
AcDbEntity
8
0
100
AcDbCircle
10
117.375
20
42.013378080352474
30
0
40
5.4999999999999991
210
0
220
0
230
1
0
CIRCLE
5
177
100
AcDbEntity
8
0
100
AcDbCircle
10
39.125
20
42.020550944735277
30
0
40
5.4999999999999991
210
0
220
0
230
1
0
CIRCLE
5
178
100
AcDbEntity
8
0
100
AcDbCircle
10
-39.125
20
42.017904239719471
30
0
40
5.4999999999999982
210
0
220
0
230
1
0
CIRCLE
5
179
100
AcDbEntity
8
0
100
AcDbCircle
10
-117.375
20
42.013361829260148
30
0
40
5.5000000000000018
210
0
220
0
230
1
0
LINE
5
180
100
AcDbEntity
8
0
100
AcDbLine
10
117.375
20
-1.8369701987210124e-16
30
0
11
39.125
21
-1.8369701987210287e-16
31
0
0
LINE
5
181
100
AcDbEntity
8
0
100
AcDbLine
10
39.125
20
-1.8369701987210287e-16
30
0
11
-39.125
21
0
31
0
0
LINE
5
182
100
AcDbEntity
8
0
100
AcDbLine
10
-39.125
20
0
30
0
11
-117.375
21
-1.8369701987210341e-16
31
0
0
ENDSEC
0
SECTION
2
OBJECTS
0
DICTIONARY
5
C
100
AcDbDictionary
3
ACAD_GROUP
350
D
3
ACAD_MLINESTYLE
350
17
0
DICTIONARY
5
D
100
AcDbDictionary
0
DICTIONARY
5
1A
330
C
100
AcDbDictionary
0
DICTIONARY
5
17
100
AcDbDictionary
0
ENDSEC
0
EOF
