0
SECTION
2
HEADER
9
$INSUNITS
70
4
9
$ACADVER
1
AC1014
9
$HANDSEED
5
FFFF
0
ENDSEC
0
SECTION
2
TABLES
0
TABLE
2
VPORT
5
8
100
AcDbSymbolTable
0
ENDTAB
0
TABLE
2
LTYPE
5
5
100
AcDbSymbolTable
0
LTYPE
5
14
100
AcDbSymbolTableRecord
100
AcDbLinetypeTableRecord
2
BYBLOCK
70
0
0
LTYPE
5
15
100
AcDbSymbolTableRecord
100
AcDbLinetypeTableRecord
2
BYLAYER
70
0
0
ENDTAB
0
TABLE
2
LAYER
5
2
100
AcDbSymbolTable
70
2
0
LAYER
5
50
100
AcDbSymbolTableRecord
100
AcDbLayerTableRecord
2
0
70
0
6
CONTINUOUS
0
ENDTAB
0
TABLE
2
STYLE
5
3
100
AcDbSymbolTable
70
1
0
STYLE
5
11
100
AcDbSymbolTableRecord
100
AcDbTextStyleTableRecord
2
STANDARD
70
0
0
ENDTAB
0
TABLE
2
VIEW
5
6
100
AcDbSymbolTable
70
0
0
ENDTAB
0
TABLE
2
UCS
5
7
100
AcDbSymbolTable
70
0
0
ENDTAB
0
TABLE
2
APPID
5
9
100
AcDbSymbolTable
70
2
0
APPID
5
12
100
AcDbSymbolTableRecord
100
AcDbRegAppTableRecord
2
ACAD
70
0
0
ENDTAB
0
TABLE
2
DIMSTYLE
5
A
100
AcDbSymbolTable
70
1
0
ENDTAB
0
TABLE
2
BLOCK_RECORD
5
1
100
AcDbSymbolTable
70
1
0
BLOCK_RECORD
5
1F
100
AcDbSymbolTableRecord
100
AcDbBlockTableRecord
2
*MODEL_SPACE
0
BLOCK_RECORD
5
1B
100
AcDbSymbolTableRecord
100
AcDbBlockTableRecord
2
*PAPER_SPACE
0
ENDTAB
0
ENDSEC
0
SECTION
2
BLOCKS
0
BLOCK
5
20
100
AcDbEntity
100
AcDbBlockBegin
2
*MODEL_SPACE
0
ENDBLK
5
21
100
AcDbEntity
100
AcDbBlockEnd
0
BLOCK
5
1C
100
AcDbEntity
100
AcDbBlockBegin
2
*PAPER_SPACE
0
ENDBLK
5
1D
100
AcDbEntity
100
AcDbBlockEnd
0
ENDSEC
0
SECTION
2
ENTITIES
0
LINE
5
100
100
AcDbEntity
8
0
100
AcDbLine
10
14.5002034714358
20
16.25
30
0
11
139.50020347143581
21
16.25
31
0
0
LINE
5
101
100
AcDbEntity
8
0
100
AcDbLine
10
139.50020347143581
20
16.25
30
0
11
139.50020347143581
21
111.25
31
0
0
LWPOLYLINE
5
102
100
AcDbEntity
8
0
100
AcDbPolyline
90
2
70
1
43
0.0
10
139.50020347143581
20
111.25
10
-30.4997965285642
20
111.25
42
-0.99999999999999989
0
LINE
5
103
100
AcDbEntity
8
0
100
AcDbLine
10
-8.001180289334723
20
16.25
30
-1.7763568394002505e-14
11
36.998819710665273
21
16.25
31
-6.8190895638475801e-15
0
LINE
5
104
100
AcDbEntity
8
0
100
AcDbLine
10
-8.001180289334723
20
3.2499999999999996
30
-1.7763568394002505e-14
11
36.998819710665273
21
3.2499999999999996
31
-6.8190895638475801e-15
0
LINE
5
105
100
AcDbEntity
8
0
100
AcDbLine
10
-8.001180289334723
20
16.25
30
-1.7763568394002505e-14
11
-8.001180289334723
21
111.25
31
-1.7763568394002505e-14
0
LINE
5
106
100
AcDbEntity
8
0
100
AcDbLine
10
54.500203471435796
20
101.73572106723954
30
0
11
54.500203471435796
21
120.76427893276046
31
0
0
LINE
5
107
100
AcDbEntity
8
0
100
AcDbLine
10
62.500203471435796
20
120.76427893276046
30
0
11
62.500203471435796
21
101.73572106723954
31
0
0
LINE
5
108
100
AcDbEntity
8
0
100
AcDbLine
10
62.500203471435796
20
120.76427893276046
30
0
11
54.500203471435796
21
120.76427893276046
31
0
0
ARC
5
109
100
AcDbEntity
8
0
100
AcDbCircle
10
62.500203471435796
20
111.25
30
0
40
70.501383760770523
210
-2.5196056370012038e-16
220
9.5677242538425415e-15
230
1
100
AcDbArc
50
0
51
180
0
LINE
5
110
100
AcDbEntity
8
0
100
AcDbLine
10
159.50020347143581
20
50
30
0
11
159.50020347143581
21
-66.75
31
0
0
LINE
5
111
100
AcDbEntity
8
0
100
AcDbLine
10
85
20
-66.75
30
0
11
159.50020347143581
21
-66.75
31
0
0
CIRCLE
5
112
100
AcDbEntity
8
0
100
AcDbCircle
10
127.50020347143578
20
-34.750000000000021
30
0
40
32
210
-0
220
0
230
1
0
LWPOLYLINE
5
113
100
AcDbEntity
8
0
100
AcDbPolyline
90
7
70
1
43
0.0
10
-8.001180289334723
20
111.25
10
41.227354205297935
20
102.50063479384008
10
41.227349308566595
20
102.50053491380199
10
41.638525646499502
20
110.88741707176128
42
-0.39993733665372883
10
62.500203471435817
20
130.75138376077049
42
-0.39992563601695752
10
81.26879105084808
20
112.8811270634817
42
-0.1903440763914227
10
73.738053751199018
20
90.689841257577498
42
-0.62268726802229701
0
LINE
5
114
100
AcDbEntity
8
0
100
AcDbLine
10
36.998819710665273
20
16.25
30
-6.8190895638475801e-15
11
41.227354205297935
21
102.50063479384008
31
-1.7763568394002505e-14
0
LINE
5
115
100
AcDbEntity
8
0
100
AcDbLine
10
62.500203471435817
20
181.75138376077052
30
-6.7453779933738482e-13
11
62.500203471435817
21
130.75138376077049
31
-6.7453779933738482e-13
0
LINE
5
116
100
AcDbEntity
8
0
100
AcDbLine
10
83.773052737573693
20
102.50063479384008
30
-1.7763568394002505e-14
11
83.773057638335104
21
102.50053491399956
31
-2.1343774356210334e-14
0
LINE
5
117
100
AcDbEntity
8
0
100
AcDbLine
10
64.012197756234244
20
16.25
30
0
11
61.292119764679576
21
16.25
31
8.827557147718032e-15
0
LINE
5
118
100
AcDbEntity
8
0
100
AcDbLine
10
64.012197756234244
20
16.25
30
0
11
127.50020347143578
21
-34.750000000000021
31
0
0
LINE
5
119
100
AcDbEntity
8
0
100
AcDbLine
10
64.012197756234244
20
16.25
30
0
11
127.50020347143578
21
95.283860190067884
31
0
0
LINE
5
120
100
AcDbEntity
8
0
100
AcDbLine
10
68.271040529911801
20
85.596391326684653
30
0
11
99.540367600472891
21
60.477699021993558
31
0
0
LINE
5
121
100
AcDbEntity
8
0
100
AcDbLine
10
99.540367600472891
20
60.477699021993558
30
0
11
126.82677844609579
21
38.558488653828519
31
0
0
LINE
5
122
100
AcDbEntity
8
0
100
AcDbLine
10
139.50020347143581
20
111.25
30
0
11
159.50020347143581
21
-32.535118711321836
31
0
0
LINE
5
123
100
AcDbEntity
8
0
100
AcDbLine
10
154.61017796211127
20
2.6205262066590089
30
0
11
150.11017796211127
21
2.6205262066590085
31
0
0
LWPOLYLINE
5
124
100
AcDbEntity
8
0
100
AcDbPolyline
90
3
70
1
43
0.0
10
126.82677844609579
20
38.558488653828519
42
0.042396352459719067
10
133.00158723220633
20
111.24999999999999
42
0.078265100303473917
10
150.11017796211127
20
2.6205262066590063
0
ARC
5
125
100
AcDbEntity
8
0
100
AcDbCircle
10
537.5377353398743
20
111.24999999999993
30
0
40
398.03753186843846
210
0
220
0
230
1
100
AcDbArc
50
180
51
195.83765970103354
0
LINE
5
126
100
AcDbEntity
8
0
100
AcDbLine
10
150.11017796211127
20
2.6205262066590085
30
0
11
91.125819356481145
21
50.0027404532605
31
0
0
LINE
5
127
100
AcDbEntity
8
0
100
AcDbLine
10
91.125819356481145
20
50.0027404532605
30
0
11
40.641786020040847
21
90.556632029381831
31
0
0
LINE
5
128
100
AcDbEntity
8
0
100
AcDbLine
10
-8.001180289334723
20
16.25
30
-1.7763568394002505e-14
11
36.998819710665273
21
16.25
31
-6.8190895638475801e-15
0
LINE
5
129
100
AcDbEntity
8
0
100
AcDbLine
10
133.03017107897588
20
106.75517635051085
30
1.6003678974109719e-14
11
80.979032005800178
21
106.75517635051085
31
1.6806062244772473e-13
0
ARC
5
130
100
AcDbEntity
8
0
100
AcDbCircle
10
225.49904201765455
20
10.762559049005006
30
5.6534524247180026e-13
40
139.98555212945428
210
-3.8844024744564757e-15
220
1.1056412665141835e-15
230
1
100
AcDbArc
50
163.72093820342803
51
205.86898048264115
0
ARC
5
131
100
AcDbEntity
8
0
100
AcDbCircle
10
30.291158713545098
20
-32.646482874521823
30
0
40
129.22453511797775
210
0
220
0
230
1
100
AcDbArc
50
-0.89108823524646752
51
15.83765970103356
0
ARC
5
132
100
AcDbEntity
8
0
100
AcDbCircle
10
45.734215141021835
20
111.25000000000001
30
0
40
76.234011669586039
210
0
220
0
230
1
100
AcDbArc
50
180
51
306.54290521112944
0
LINE
5
133
100
AcDbEntity
8
0
100
AcDbLine
10
-24.500203463156652
20
16.25
30
0
11
-30.340054258234002
21
106.31744786058741
31
0
0
LINE
5
134
100
AcDbEntity
8
0
100
AcDbLine
10
-24.500203463156652
20
16.25
30
0
11
-8.001180289334723
21
16.25
31
-1.7763568394002505e-14
0
LINE
5
135
100
AcDbEntity
8
0
100
AcDbLine
10
36.998819710665273
20
16.25
30
-6.8190895638475801e-15
11
64.012197756234244
21
16.25
31
0
0
LINE
5
136
100
AcDbEntity
8
0
100
AcDbLine
10
61.292119764679569
20
-43.75
30
1.7763568394002505e-14
11
64.012197756234229
21
-43.75
31
8.9360112462844726e-15
0
LINE
5
137
100
AcDbEntity
8
0
100
AcDbLine
10
64.012197756234244
20
16.25
30
0
11
64.012197756234229
21
-43.75
31
8.9360112462844726e-15
0
LINE
5
138
100
AcDbEntity
8
0
100
AcDbLine
10
64.012197756234229
20
-43.75
30
8.9360112462844726e-15
11
115.58104353744605
21
-64.44736733227333
31
0
0
ENDSEC
0
SECTION
2
OBJECTS
0
DICTIONARY
5
C
100
AcDbDictionary
3
ACAD_GROUP
350
D
3
ACAD_MLINESTYLE
350
17
0
DICTIONARY
5
D
100
AcDbDictionary
0
DICTIONARY
5
1A
330
C
100
AcDbDictionary
0
DICTIONARY
5
17
100
AcDbDictionary
0
ENDSEC
0
EOF
